<svg width="67" height="57" viewBox="0 0 67 57" fill="none" xmlns="http://www.w3.org/2000/svg">
<path d="M65.6561 13.9448L64.1431 9.26319L60.7461 5.70922L57.0494 2.55487L52.6105 0.385357L47.6863 0L42.862 0.742183L38.366 2.59768L34.498 5.56648L31.6434 9.49157L30.9725 10.9617L27.8039 8.43538L23.2508 6.72259L18.4551 5.69493L13.6165 6.56559L9.02056 8.27837L5.18113 11.3471L2.19804 15.2293L0.428196 19.7824L0 24.6067L0.356826 29.4596L2.11241 34.0412L5.28103 37.7808L9.19185 40.6639L13.6736 42.4766L18.4551 43.6755L23.3364 42.8334L25.3204 41.9627L26.2196 45.8308L27.9609 50.1127L31.2723 53.3955L35.4115 55.565L40.0359 56.036L44.5177 55.1511L48.6426 53.2099L51.8255 49.9271L54.2804 45.9878L55.0226 41.3633L53.995 36.8245L53.8237 36.4391L56.9495 34.8405L61.0316 32.1572L64.1574 28.3177L65.8416 23.679L66.6552 18.8119L65.6561 14.0019V13.9448ZM26.6906 26.8904L25.3204 28.332L23.2936 28.489L20.9814 28.5461L19.1259 27.1331L18.398 24.9778L19.026 22.7655L20.6531 21.1526L22.8654 20.4675L24.9921 21.2954L26.8762 22.6656L27.233 24.9778L26.6906 26.9047V26.8904ZM51.3687 20.9243L50.127 22.4372L48.1288 22.8226L46.0021 22.2374L44.0609 21.1955L43.49 19.0831L43.9182 16.885L45.5453 15.3292L47.7148 14.7298L49.9129 15.2722L51.4829 16.8993L51.8683 19.0831L51.3687 20.9243Z" fill="white"/>
</svg>
