<svg width="48" height="58" viewBox="0 0 48 58" fill="none" xmlns="http://www.w3.org/2000/svg">
<g clip-path="url(#clip0_14_348)">
<path d="M7 37.5L4.5 30.5L21 24L34.5 9L42 10.5L44 37.5L41.5 40L38.5 43L35.5 45L25.5 45.5L7 37.5Z" fill="black"/>
<path d="M41.9462 39.8044L39.7157 42.2817L37.3827 43.865L35.3199 35.4924L36.186 31.7253L41.9508 39.8044H41.9462ZM47.7623 20.1257L46.0999 14.17L42.342 8.26542L37.5643 4.13504L31.3944 1.18277L25.6528 0L18.356 0.749709C16.2838 1.38766 14.2116 2.16997 12.1301 3.11059L7.40835 6.54715C5.71336 8.37253 4.19997 10.3609 2.84491 12.5029C1.79252 14.7893 0.977619 16.9267 0.460739 18.8778C0.134778 21.6065 -0.0142324 24.2142 -0.00026271 26.7148L2.02535 33.8114L5.89496 40.3539C7.89264 42.0349 10.1325 43.6182 12.5306 45.1455C14.7378 46.2538 17.285 47.1944 20.0882 48L27.5527 47.9069L34.2815 45.9697L35.5341 45.1222L33.9974 37.7183L25.0708 42.4447L17.7506 40.2282L12.9078 35.5763L7.03583 34.1932L6.46772 33.4901C6.46772 33.4901 9.56435 33.1921 10.8728 33.0896L14.4025 29.2945L20.2465 30.3143L28.0975 24.7637L34.1138 16.6705L35.2966 11.6042L36.2233 11.5437L36.2838 13.8626L38.7332 10.752L40.0184 10.5891L36.1907 19.4412L36.7448 29.3318L43.3338 38.2864L43.874 37.6857C44.8286 36.2095 45.7134 34.482 46.5376 32.5262L47.8787 27.1618C48.0789 24.8801 48.0556 22.5378 47.7716 20.1304L47.7623 20.1257Z" fill="white"/>
</g>
<path d="M19 46H29.5L28.125 49L26 53.5L24 58L22.5 53.5L21 50L19 46Z" fill="white"/>
<defs>
<clipPath id="clip0_14_348">
<rect width="48" height="48" fill="white"/>
</clipPath>
</defs>
</svg>
