<svg width="614" height="405" viewBox="0 0 614 405" fill="none" xmlns="http://www.w3.org/2000/svg">
<path d="M412.164 369.301L411.279 364.177L410.879 358.996L410.251 353.844L409.766 348.677L409.452 343.481L408.41 338.372L407.796 333.219L407.611 328.024L406.897 322.885L406.426 317.719L405.541 312.594L405.327 307.399L404.399 302.289L404.128 297.094L403.5 291.956L402.558 286.832L402.13 281.665L401.516 276.512L401.074 271.345L400.603 266.179L399.846 261.04L399.589 255.845L398.862 250.707L398.062 245.583L397.977 240.373L397.377 235.22L396.663 230.082L396.021 224.944L395.165 219.82L395.065 214.61L394.223 209.5L393.438 204.362L393.052 199.195L392.667 194.014L391.711 188.904L391.368 183.737L391.097 178.556L390.141 173.447L388.228 171.934L382.99 171.862L377.766 171.848L372.542 171.491L367.332 171.976L362.108 171.691L356.899 171.52L351.675 171.463L346.465 171.477L341.241 171.577L336.032 171.962L330.808 171.634L325.598 171.463L320.388 171.862L315.179 171.648L309.955 171.42L304.745 171.406L299.535 171.905L294.311 171.791L290.729 175.402L287.203 179.213L283.635 182.981L280.181 186.763L279.096 191.773L278.425 196.897L277.626 201.978L276.384 206.988L275.785 212.098L275.157 217.208L273.901 222.203L273.373 227.342L272.588 232.423L271.232 237.404L270.59 242.514L269.562 247.552L269.248 252.705L268.049 257.715L267.207 262.782L266.365 267.848L265.366 272.887L264.424 277.94L263.824 283.064L262.882 288.116L262.211 293.212L261.069 298.222L260.527 303.346L259.457 308.384L258.943 313.508L257.944 318.546L257.187 323.628L256.416 328.709L255.303 333.733L254.418 338.8L253.576 343.867L252.506 348.891L251.635 353.944L251.178 359.082L249.979 364.092L249.465 369.216L248.652 374.283L249.066 374.796L254.447 375.053L259.828 374.825L265.194 375.467L270.561 375.282L275.928 375.339L281.294 375.325L286.675 375.21L292.028 375.824L297.409 375.325L302.775 375.524L304.945 373.969L304.759 368.959V363.935L304.402 358.896L304.888 353.886L304.931 348.862L305.03 343.824L305.658 338.814L306.001 333.79L306.914 328.837L307.771 323.884L308.47 318.903L309.641 314.008L311.054 309.183L312.866 304.473L315.464 300.163L318.461 296.138L321.587 293.626L319.546 292.898L314.565 291.028L309.84 288.53L305.516 285.404L301.591 281.779L298.279 277.583L295.296 273.158L293.512 268.134L292.285 263.01L291.243 257.786L291.956 252.491L292.699 247.581L293.955 242.771L295.881 238.189L298.094 233.779L300.377 229.34L303.903 225.829L307.828 222.831L312.224 220.605L316.82 218.835L321.616 217.579L326.497 216.651L331.478 216.565L336.388 216.394L335.147 218.264L340.342 218.407L345.552 218.664L350.604 219.977L355.557 221.504L360.339 223.459L364.877 225.943L368.817 229.283L372.571 232.865L375.026 237.447L376.881 242.257L378.051 247.31L378.508 252.491L378.266 257.729L377.081 262.824L375.596 267.834L373.241 272.487L370.644 276.983L367.432 281.094L363.793 284.819L359.539 287.831L355.215 290.728L350.547 293.098L345.566 294.753L340.385 295.61H340.271L341.641 296.552L345.409 300.106L348.206 304.459L350.79 308.955L352.403 313.893L354.572 318.632L355.7 323.713L356.827 328.766L357.655 333.89L358.269 339.042L358.868 344.181L359.397 349.333L359.982 354.486L360.096 359.681L359.853 364.862L359.91 370.044L359.653 375.225L361.923 376.823L367.232 376.994L372.542 377.08L377.852 376.952L383.133 377.58L388.442 377.152L393.752 377.494L399.047 377.765L404.342 377.78L409.652 377.965L412.678 374.482L412.164 369.301Z" fill="#E0592A"/>
<path d="M157.446 120.636L153.507 117.596L149.639 114.484L145.899 111.216L142.131 107.976L138.477 104.593L134.438 101.667L130.984 98.0416L126.945 95.1013L127.073 92.5179L131.441 89.7917L135.523 86.6517L139.79 83.7685L143.858 80.5999L148.169 77.7738L152.465 74.9049L153.064 73.7346L153.535 68.7818L153.964 63.8148L154.577 58.8763L155.633 53.9949L155.89 49.0136L156.433 44.0609L157.104 39.1224L157.603 34.1554L157.503 32.7424L153.849 29.1598L150.024 25.7486L146.199 22.3516L142.745 18.555L139.148 14.9011L135.437 11.3613L131.483 8.07854L128.058 4.23909L124.161 0.884929L123.262 0.0570922L118.195 0.285461L113.128 0.471011L108.061 0.32828L102.994 0.585195L97.9275 0.314007L92.8605 0.585195L87.7936 0.413918L82.7267 0.570922H77.6597L72.5928 0.256915L67.5258 0.114184L62.4589 0L57.392 0.0856383L52.325 0.51383L47.2581 0.114184L42.1912 0.356826L37.1242 0.471011H32.0573L26.9904 0.0713652L21.9234 0.157004L16.8422 0.356826L11.761 0.171277L10.4479 1.61285L9.91978 6.70833L9.47731 11.8181L9.32031 16.9421L9.04912 22.0661L8.66375 27.1759L8.52102 32.2999L8.54956 37.4382L8.14992 42.548L8.00719 47.672L7.62181 52.7817L7.19362 57.8915L6.89389 63.0155L6.50852 68.1395L6.39433 73.2778L6.00896 78.4018L6.08032 83.5401L5.66641 88.6642L5.20967 93.7739V98.9122L4.49602 104.022L4.35328 109.16L3.91082 114.284L3.79663 119.423L3.61108 124.561L3.42554 129.699L3.31135 134.837L2.58342 139.947L2.81179 145.1L2.06959 150.21L1.75559 155.334V160.472L1.52722 165.596L0.970569 170.706L1.12757 175.844L0.942022 180.968L0.214097 186.063L0.456739 191.202L0.142731 196.326L0 201.507L5.18112 201.55L10.3622 201.664L15.5434 201.578L20.7245 201.707L25.9056 201.307L31.0725 201.435H36.2536L41.4347 201.664L46.6158 201.564L51.7969 201.478L56.9781 201.321L62.1592 201.136L67.3403 201.421L72.5214 201.678H77.7025L82.8837 201.179L88.0648 201.707L93.2602 201.107L98.4556 201.578L99.1978 201.307L103.851 199.352L108.461 197.311L113.185 195.555L118.01 194.056L122.72 192.244L127.458 190.531L132.169 188.732L136.665 186.363L141.475 184.822L146.156 182.895L150.881 181.111L151.837 179.983L152.365 174.716L152.936 169.464L153.535 164.211L153.992 158.945L154.577 153.692L154.848 148.411L155.405 143.159L155.99 137.906L156.818 132.682L157.475 127.43L157.589 122.12L157.375 120.636H157.446ZM115.312 69.0102L114.227 74.0057L112.486 78.7872L110.573 83.5401L107.605 87.7221L104.436 91.7757L100.225 94.7445L96.1433 97.8275L95.915 97.9274L97.0711 98.5554L100.825 102.067L103.994 106.077L107.191 110.102L109.203 114.827L111.13 119.594L112.101 124.647L111.958 129.785V134.78L111.159 139.719L109.503 144.443L107.219 148.882L104.222 152.879L100.539 156.261L96.3432 159.016L91.576 160.558L86.8087 162.013L81.8417 162.541L76.8604 162.827L71.8363 162.599L66.7979 162.313L61.8452 161.3L57.1493 159.43L52.4249 157.66L47.986 155.234L44.1894 151.894L40.721 148.283L37.9092 144.144L35.8254 139.605L34.4552 134.795L34.184 129.785L34.4694 125.003L35.1117 120.236L36.5533 115.64L38.2946 109.531L40.8067 104.921L44.6889 101.467L48.4856 97.9131L53.1957 95.7008L53.4383 95.5866L52.6676 95.0442L49.0137 91.4617L45.6595 87.6365L42.9048 83.3546L40.1929 78.987L38.5658 74.1057L38.0377 68.9959L37.3811 63.929L38.0092 58.8478L39.0225 53.8665L40.1216 48.8281L42.8049 44.432L45.4311 40.0359L48.6997 36.0537L52.6248 32.7281L57.1065 30.2303L61.5026 27.5755L66.4554 26.2053L71.4509 25.092L76.5607 24.8351H81.699L86.7374 25.8913L91.6188 27.547L96.0292 30.1732L100.297 32.9707L104.279 36.1964L107.562 40.1215L110.702 44.2036L112.943 48.8424L114.399 53.7666L115.069 58.8335L115.526 63.9004L115.312 68.9959V69.0102Z" fill="#E0592A"/>
<path d="M459.65 61.2889L459.036 60.0899L455.896 56.3647L452.456 52.9249L449.102 49.3994L446.147 45.4886L442.736 42.006L439.168 38.6661L435.999 34.9551L432.531 31.5153L432.203 30.7874L427.236 28.9033L422.511 26.4912L417.801 24.0505L413.005 21.7954L408.21 19.5545L403.414 17.2994L398.604 15.0728L393.708 13.0174L389.012 10.5339L387.514 10.3341L382.918 12.4037L378.065 13.6597L373.226 14.9728L368.502 16.6142L363.792 18.327L358.939 19.583L354.215 21.2673L349.519 23.0228L344.766 24.65L343.767 25.0924L340.512 29.4314L337.558 33.9988L334.104 38.2094L330.85 42.5626L327.71 47.0158L324.47 51.3834L324.141 52.2398L323.556 57.4923L322.4 62.6448L321.701 67.883L320.459 73.0213L319.645 78.231L318.746 83.4264L318.004 88.6646L316.776 93.8172L317.162 94.5023L317.875 99.5692L318.86 104.579L319.988 109.56L321.301 114.513L322.1 119.566L323.47 124.504L324.027 129.614L325.269 134.581L326.411 139.577L327.367 144.615L328.495 145.6L333.105 148.269L337.843 150.695L342.653 152.95L347.335 155.477L352.159 157.718L356.898 160.144L361.679 162.499L366.475 164.811L367.431 165.068L372.456 164.726L377.465 164.083L382.504 163.855L387.542 163.57L392.581 163.298L397.619 162.956L402.643 162.585L407.681 162.242L412.706 161.814L417.715 161.072L422.754 160.629L427.792 160.23L429.134 159.573L431.889 155.049L434.757 150.595L437.341 145.957L440.01 141.375L442.736 136.836L445.434 132.269L448.331 127.816L451.257 123.377L454.055 118.852L456.567 114.171L457.038 113.343L457.309 108.147L457.395 102.938L457.366 97.728L458.222 92.5611L458.265 87.3515L458.365 82.1418L458.908 76.9607L459.307 71.7653L459.079 66.5271L459.607 61.3317L459.65 61.2889ZM339.727 60.5181L343.781 57.0783L347.906 53.7384L351.945 50.2986L355.885 46.7589L359.767 43.1193L364.463 41.6777L368.959 39.7937L373.398 37.7526L378.079 36.3539L382.475 34.2272L387.143 32.7999L387.1 32.5715L391.753 33.7847L396.349 35.1978L401.144 35.7972L405.769 37.1246L409.908 39.8222L414.376 41.9061L418.6 44.4181L422.882 46.8303L427.393 49.0569L422.211 50.0417L417.13 50.9124L412.049 51.7973L406.954 52.5395L401.801 52.9677L396.777 54.1666L391.639 54.6376L386.614 55.7938L381.562 56.8071L376.466 57.5351L371.399 58.4771L366.29 59.1336L361.208 59.99L356.127 60.7608L351.06 61.6885L345.979 62.445L340.926 63.4441L337.529 63.6154L339.756 60.5181H339.727ZM332.391 72.9357L334.375 67.9401L339.371 67.2836L344.58 66.7412L349.761 66.0561L354.957 65.4709L360.109 64.5717L365.305 63.9865L370.529 63.5583L375.738 63.1016L380.905 62.288L386.101 61.66L391.267 60.8607L396.434 60.0899L401.701 60.0329L406.839 59.0908L412.035 58.4771L417.244 57.9918L422.383 56.9784L427.635 56.8642L432.888 55.808L435.657 59.7474L438.14 63.7296L440.995 67.4977L442.008 72.0508L443.022 76.561L444.006 81.1855L438.768 80.8715L433.616 80.743L428.463 80.9714L423.325 80.7288L418.186 80.3719L413.048 80.115L407.91 79.8724L402.757 79.9723L397.619 79.5727L392.466 79.8153L387.328 79.5727L382.19 79.6012L377.051 79.5727L371.913 79.4442L366.789 78.8019L361.651 78.9732L356.513 78.4879L351.36 78.5878L346.222 78.5164H341.083L335.945 78.0883L330.907 77.9883L332.391 72.9357ZM422.483 136.308L418.857 137.835L414.033 139.948L409.38 142.374L404.527 144.415L398.647 145.286L392.895 146.756L387.071 148.069L381.904 146.542L376.638 145.643L371.471 144.387L366.318 143.259L361.394 140.89L356.755 137.992L351.974 135.352L348.177 132.954L352.159 132.997L357.269 133.296L362.379 133.525L367.489 133.782L372.613 133.653L377.708 134.153L382.832 133.967L387.928 134.381L393.037 134.481L398.147 134.538L403.243 135.023L408.352 134.966L413.448 135.58L418.558 135.466L422.597 135.666L422.44 136.294L422.483 136.308ZM438.154 116.968L435.785 122.106L432.731 124.904L429.848 127.858L427.007 130.827L426.979 130.67H421.969L416.973 130.356L411.992 130.056L406.996 129.899L402.044 129.2L397.062 128.943L392.067 128.772L387.071 128.643L382.118 127.944L377.109 128.015L372.142 127.459L367.16 127.159L362.179 126.788L357.198 126.617L352.202 126.46L347.221 126.288L342.211 125.917L339.413 122.563L337.016 118.966L334.318 115.655L333.062 111.145L331.435 106.549L336.773 106.734L341.954 107.391L347.164 107.362L352.359 107.605L357.54 108.076L362.736 108.247L367.917 108.647L373.141 108.504L378.322 108.975L383.517 109.132L388.713 109.389L393.894 109.817L399.103 109.732L404.27 110.217H409.48L414.661 110.716L419.842 111.073L425.038 111.145L430.233 111.43L435.428 111.673L440.824 111.787L438.14 116.954L438.154 116.968ZM446.133 95.1303L445.762 100.882L445.405 106.634L445.105 106.577L439.953 106.506L434.8 106.32L429.676 105.906L424.538 105.692L419.4 105.435L414.276 105.007L409.152 104.579L404.028 104.051L398.875 104.194L393.751 103.908L388.627 103.366L383.517 102.823L378.365 102.881L373.226 102.709L368.117 101.953L362.964 102.21L357.854 101.582H352.702L347.592 100.982L342.468 100.525L337.315 100.654L332.263 100.083L331.849 94.5308L331.763 88.9072L331.592 82.5129L337.03 82.8412L342.268 83.2408L347.478 83.7975L352.716 83.9973L357.954 84.0972L363.178 84.3541L368.388 84.8537L373.626 84.925L378.85 85.3675L384.06 85.8671L389.298 85.8385L394.493 86.4808L399.717 86.6949L404.927 87.1945L410.179 86.9661L415.389 87.5656L420.613 87.9367L425.851 87.9795L431.075 88.2221L436.285 88.793L441.509 89.0642L446.59 89.4639L446.105 95.0875L446.133 95.1303Z" fill="#E0592A"/>
<path d="M613.798 197.383L613.413 202.478L613.641 207.574L612.785 209.443L608.275 209.272L603.722 209.372L603.65 207.045H598.869L593.973 206.831L589.077 206.717L584.182 207.045L579.3 206.803L574.419 206.96L569.538 206.589L564.656 206.974L559.775 206.803L559.033 205.832L558.876 200.608L558.99 195.384L558.933 190.175L558.833 184.965L558.99 179.755L558.776 174.546L558.904 169.336L559.147 164.126L558.833 158.917L558.776 153.707L558.662 148.497L558.804 143.288L558.861 138.078L559.09 132.883L558.933 127.673L559.004 122.463L558.976 117.254L557.377 116.754L555.422 121.621L553.809 126.617L551.939 131.512L549.541 136.194L548.128 141.261L546.001 146.042L543.846 150.824L542.29 155.834L540.306 160.672L538.394 165.539L536.581 170.449L534.583 175.288L533.826 175.516L527.132 174.688L526.604 174.118L524.635 169.322L523.364 164.298L521.666 159.431L520.267 154.464L518.469 149.625L516.984 144.687L515.172 139.848L513.716 134.895L512.188 129.971L510.661 125.047L508.649 120.28L507.136 115.355L505.709 110.403L504.138 110.574L504.081 115.755L504.51 120.922L504.766 126.089L504.681 131.27L504.881 136.437L504.795 141.618L505.423 146.77L505.38 151.951L505.352 157.118L505.908 162.271L505.637 167.452L505.851 172.619L506.379 177.771L506.279 182.938L505.395 183.609L500.556 182.981L495.789 181.911L490.964 181.268L486.197 180.269L481.373 179.598L476.577 178.813L471.781 178.014L467.014 177.015L462.19 176.373L461.633 175.388L461.847 170.307L461.819 165.225L462.475 160.173L462.447 155.092L462.604 150.025L462.761 144.958L463.232 139.905L463.617 134.838V129.771L463.974 124.719L464.031 119.652L463.988 114.585L464.445 109.532L464.417 104.465L464.673 99.3981L465.173 94.3597L465.287 89.2928L465.244 84.2259L465.601 79.1732L466.072 74.1206L466.215 69.0536L466.543 64.001L466.5 58.9198L466.686 53.8528L467.143 48.8002L466.515 47.7154L465.658 47.43L465.316 46.6592L465.558 41.0071L466.4 35.4263L466.8 29.8028L467.285 24.1934L467.742 18.5841L468.613 17.5137L474.122 17.8848L479.632 17.7278L485.127 17.9276L490.622 17.5422L496.117 17.9276L497.188 18.5271L497.045 23.8224L496.802 29.0891L496.345 34.3701L496.831 39.6512L496.759 44.9465L497.287 50.2132L498.372 55.3943L499.257 60.5897L500.299 65.7851L502.511 70.5951L504.809 75.3338L507.55 79.8441L511.175 83.6835L515.243 87.0948L520.21 88.9503L525.163 90.7915L530.415 91.4623L535.568 91.3909L540.678 90.7629L545.702 89.5783L550.397 87.423L554.594 84.44L558.761 81.4712L562.501 77.9457L565.984 74.1491L568.724 69.7958L571.464 65.4711L574.333 61.1749L576.06 56.3078L578.258 51.6691L579.829 46.7734L581.598 41.9491L583.083 37.0392L584.624 32.1435L585.438 27.0623L586.58 22.0525L587.55 17.0141L588.307 16.172L593.231 16.4146L598.141 16.8286H603.065L607.975 17.2282L612.871 17.7991L613.841 18.6412L613.442 23.7653L613.37 28.8893L613.798 33.999L613.484 39.1088L613.513 44.2185L613.727 49.3283L613.699 54.438L613.741 59.5478L613.413 64.6575L613.513 69.7673L613.898 74.877L613.513 79.9868L613.884 85.0965L613.727 90.192L613.413 95.3018L613.813 100.397V105.507V110.617L613.884 115.726L613.913 120.836L613.699 125.946L613.827 131.056L613.613 136.165L613.57 141.275L613.399 146.385L613.727 151.495L613.527 156.604L613.384 161.7L613.613 166.795L613.442 171.905L613.941 177.001L613.442 182.096L613.584 187.192L613.47 192.301L613.898 197.411L613.798 197.383Z" fill="#E0592A"/>
<path d="M263.038 194.456L257.857 194.371L252.69 194.014L247.495 194.313L242.328 193.971L237.147 193.871L231.98 193.486L226.799 193.357H221.618L216.437 193.2L211.27 192.658L206.103 192.472L200.922 192.201L195.741 192.287L190.574 191.958L185.393 191.716L180.212 191.659L175.016 191.816L169.835 191.716L164.668 191.288L159.487 191.059L154.292 191.088L149.111 190.645L143.93 190.417L143.416 191.173L142.374 195.883L141.389 200.622L140.133 205.318L139.576 210.142L139.405 210.371L140.29 214.281L141.703 218.049L141.303 218.363L140.49 223.502L139.334 228.597L138.577 233.75L137.321 238.817L136.622 243.998L135.123 249.008L134.067 254.117L133.096 259.242L132.154 264.366L131.055 269.461L129.842 274.528L129.257 279.723L127.987 284.79L127.216 289.943L125.903 295.01L124.789 300.091L123.862 305.229L122.891 310.353L122.149 315.52L120.622 320.544L119.565 325.654L118.723 330.807L117.824 335.945L116.54 341.012L115.954 346.221L116.297 347.021L121.763 347.092L127.244 347.206L132.697 347.834L138.178 347.791L139.048 347.335L139.69 342.211L140.39 337.044L141.589 331.991L143.287 327.067L145.157 322.228L147.098 317.404L149.282 312.694L151.865 308.184L155.02 304.045L158.26 299.991L161.956 296.323L166.295 293.44L170.891 290.999L175.816 289.272L177.257 289.086L175.987 288.601L171.762 285.918L167.694 282.963L164.583 278.981L162.499 274.399L161.229 269.561L160.501 264.622L160.015 259.641L160.087 254.603L160.972 249.764L162.998 245.282L166.196 241.571L169.65 238.103L173.775 235.477L177.928 232.822L182.595 231.281L187.248 229.668L192.087 228.783L196.911 228.355L198.981 229.297L201.95 230.824L206.76 232.979L211.313 235.234L215.666 237.889L219.448 241.3L223.059 244.897L226 249.079L227.827 253.846L229.225 258.742L229.311 263.837L228.897 268.79L227.37 273.515L225.058 277.925L221.846 281.722L218.306 285.19L214.239 288.03L209.686 290L205.118 291.87L201.55 292.612L205.432 295.823L209.115 299.492L212.326 303.616L214.895 308.198L216.394 313.222L217.85 318.246L219.106 323.356L219.263 328.609L219.948 333.832L219.762 339.071L219.52 344.309L219.063 349.519L219.591 350.461L224.672 350.318L229.753 350.275L234.835 350.118L239.916 350.418L245.011 350.147L245.825 349.576L246.439 344.437L246.567 339.242L247.481 334.132L247.78 328.965L248.822 323.87L249.165 318.689L249.836 313.55L250.721 308.441L251.049 303.274L251.82 298.15L252.005 292.954L252.919 287.845L253.19 282.664L254.303 277.568L254.374 272.373L254.988 267.22L255.916 262.125L256.259 256.944L257.343 251.862L257.629 246.681L258.314 241.543L258.771 236.376L259.613 231.252L260.269 226.114L260.383 220.904L261.354 215.809L261.968 210.656L262.467 205.489L263.181 200.351L263.866 195.198L263.038 194.456Z" fill="#E0592A"/>
<path d="M546.687 302.247L547.258 297.194L546.83 292.127L547.001 287.06L547.058 282.007L546.801 276.955V271.888L547.072 266.835L546.815 261.782L546.987 256.73L547.244 251.677L546.73 246.624L546.844 241.572L547.244 236.519L547.187 231.467L546.944 226.414L546.758 221.361L547.044 216.309L547.015 211.256L546.83 206.203L547.172 201.151V196.098L546.016 195.256L540.906 195.299H535.797L530.687 195.17L525.577 194.899L520.467 194.813L515.358 195.313L510.248 195.113L505.138 195.256L500.028 195.142L494.919 194.87L489.809 194.985L484.713 195.284L479.604 194.999L474.508 195.27L469.398 195.042L464.303 195.299L459.193 195.256L454.083 195.384L448.974 195.199L443.864 195.356L438.754 195.127L433.659 194.813L433.216 194.542L433.116 189.775L432.517 185.022L432.103 180.269L431.846 179.598L427.15 179.927L422.454 180.012L417.773 179.755L417.373 180.269L417.402 185.464V190.66L417.387 195.855L417.501 201.051L417.744 206.232L417.673 211.427L417.816 216.623L417.416 221.818L417.473 227.013L418.015 232.194L417.787 237.39L417.644 242.571L417.716 247.752L417.987 252.933L418.072 258.114L417.93 263.31L418.358 268.491V273.672L418.601 278.853L418.272 284.048L418.172 289.244L418.686 294.425L418.715 299.606L418.8 304.787L418.729 309.968L418.615 315.164L418.8 320.345L418.758 325.526L419.043 330.707L418.729 335.902L418.843 341.084L419.243 346.265L419.2 351.446L419.485 356.627L419.043 361.822L419.114 367.003L419.557 372.184L419.7 377.366L419.414 382.547L419.386 387.728L419.543 392.909L419.942 398.09L419.842 403.271L420.984 404.67L425.566 404.285L430.147 404.013L434.729 404.142L435.714 403L435.8 397.69L435.528 392.381L435.457 387.086L435.8 381.79L435.543 376.495L435.457 371.2L435.585 365.904V360.609L435.857 355.314L435.7 350.018L435.428 344.723L435.671 339.428L435.428 334.133L436.627 333.105L441.866 333.176L447.09 333.005L452.285 332.391L457.509 332.548L462.719 332.348L467.914 331.663L473.152 331.92L478.362 331.535L483.572 331.406L488.767 330.935L493.991 330.878L499.186 330.479L504.396 330.45L509.606 330.279L514.801 329.922L519.996 329.451H525.22L530.43 329.094L535.64 328.923L540.849 328.78L546.059 328.723L547.044 327.653L546.83 322.586L546.887 317.519L546.801 312.452L547.272 307.385L546.716 302.318L546.687 302.247ZM532.442 261.982L531.558 266.892L530.145 271.688L528.075 276.227L525.62 280.537L523.136 284.833L519.968 288.659L516.714 292.398L513.031 295.752L508.963 298.664L504.482 300.891L499.729 302.404L494.89 303.488L490.023 304.516L485.042 304.83L479.975 304.23L474.865 304.145L469.898 302.989L465.116 301.247L460.278 299.606L456.096 296.68L451.857 293.84L448.431 290.057L445.448 285.947L442.993 281.522L441.024 276.855L439.439 272.045L438.469 267.078L437.769 262.054L437.27 256.987L437.655 251.848L438.911 246.853L440.995 242.143L443.236 237.547L445.691 233.037L448.631 228.812L452.271 225.172L455.982 221.647L459.992 218.464L464.117 215.367L468.742 213.054L473.695 211.613L478.633 210.171L483.714 209.286L488.881 209.243L494.019 209.743L499.143 210.385L504.139 211.713L508.792 213.953L513.217 216.58L517.284 219.748L520.781 223.545L523.736 227.756L526.391 232.166L528.874 236.719L530.273 241.715L531.458 246.739L532.157 251.848L532.742 256.987L532.442 261.968V261.982Z" fill="#E0592A"/>
<path d="M315.135 66.5411L312.224 62.4733L309.269 58.4483L306.629 54.1807L303.332 50.3983L300.534 46.2591L297.537 42.2627L294.696 38.1377L291.628 34.1984L288.573 30.2305L285.604 26.1912L282.707 22.1091L281.879 21.5382L276.898 21.1671L271.945 20.5819L267.035 19.5971L262.011 19.4971L257.101 18.5551L252.134 18.0556L247.153 17.6702L242.186 17.085L237.262 16.2001L232.28 15.7433L227.327 15.101L222.332 14.7728L217.422 13.7166L212.469 13.0315L207.488 12.5176L202.507 12.0181L201.65 12.7317L197.982 16.4284L195.013 20.7104L191.345 24.4213L188.319 28.6604L184.979 32.6283L181.854 36.7818L178.499 40.7497L175.274 44.8175L171.62 48.5571L168.351 52.5963L168.223 53.3671L167.595 58.4055L167.481 63.501L166.795 68.5393L166.524 73.6205L166.053 78.6875L165.696 83.7687L165.368 88.8499L165.011 93.9311L164.455 98.998L163.727 104.051L163.67 109.146L163.341 114.227L162.956 119.309L162.043 124.333L161.671 129.414L161.329 134.495L161.814 135.166L164.512 139.762L167.666 144.044L170.835 148.326L173.932 152.65L176.958 157.018L180.126 161.3L183.081 165.739L186.449 169.864L189.247 174.417L192.687 178.513L193.372 178.998L198.41 179.812L203.506 179.769L208.587 180.04L213.654 180.426L218.707 181.082L223.773 181.539L228.869 181.496L233.922 182.053L238.974 182.724L244.07 182.767L249.137 183.28L254.218 183.552L259.313 183.637L264.38 184.137L269.433 184.85L270.518 184.422L273.943 180.626L277.54 177L281.28 173.518L285.033 170.064L288.773 166.581L292.17 162.741L296.095 159.444L299.749 155.862L303.274 152.137L306.814 148.44L307.142 147.84L307.842 142.831L308.299 137.792L308.598 132.74L309.526 127.744L309.769 122.691L310.368 117.667L310.882 112.629L311.696 107.619L311.967 102.552L312.167 97.4851L313.166 92.5038L313.594 87.4654L313.708 82.3842L314.664 77.3886L315.15 72.336L315.478 67.269L315.15 66.5411H315.135ZM274.814 100.725L274.2 105.992L272.587 111.03L270.532 115.869L268.263 120.65L264.723 124.59L260.998 128.343L256.53 131.198L251.535 132.968L246.439 134.424L241.13 134.267L236.105 134.124L231.138 133.425L226.228 132.397L221.304 131.269L216.666 129.257L212.341 126.631L208.359 123.533L204.962 119.822L201.793 115.883L200.18 111.102L198.367 106.377L198.153 101.31L198.439 96.486L199.195 91.7045L201.065 87.2513L202.949 82.8124L202.649 81.0568L204.619 76.0755L207.445 71.5081L211.427 67.9256L215.809 64.8426L220.848 63.0299L225.957 61.4314L231.281 60.9033L236.619 60.4465L241.872 61.203L247.139 61.674L252.263 63.0728L257.101 65.2423L261.64 67.9827L265.594 71.5081L268.805 75.6759L271.845 80.0006L273.701 84.9676L274.5 90.1916L275.271 95.444L274.8 100.725H274.814Z" fill="#E0592A"/>
</svg>
