<svg width="399" height="116" viewBox="0 0 399 116" fill="none" xmlns="http://www.w3.org/2000/svg">
<path d="M87.6228 70.1094C94.6768 69.9576 101.379 74.0549 101.631 84.1211L102.033 100.763C102.285 111.082 95.7353 115.281 88.6814 115.433C81.6275 115.584 74.9257 111.891 74.6736 101.421L74.2712 84.7783C74.0194 74.6618 80.569 70.2613 87.6228 70.1094ZM136.296 113.004L125.916 113.257L117.401 91.4053H116.947L117.451 113.459L107.878 113.662L106.921 70.9189L117.754 70.666L125.866 90.3936H126.268L125.815 70.4629L135.338 70.2607L136.296 113.004ZM164.057 79.417L152.318 102.382L165.015 102.078L165.267 112.347L141.133 112.903L140.881 102.533L152.721 80.0742L140.729 80.3271L140.477 70.1602L163.856 69.6035L164.057 79.417ZM190.913 79.2646L179.677 79.5176L179.778 84.9307L190.51 84.6777L190.712 94.3389L179.979 94.5918L180.131 101.674L191.619 101.421L191.871 111.739L170.104 112.245L169.147 69.502L190.661 68.9961L190.913 79.2646ZM245.984 106.884L235.605 107.137L227.09 85.2842H226.636L227.14 107.339L217.567 107.541L216.61 64.7979L227.443 64.5449L235.554 84.2725H235.958L235.505 64.3428L245.027 64.1406L245.984 106.884ZM281.204 106.125L270.674 106.378L269.01 98.4863L261 98.6885L259.689 106.631L249.462 106.884L258.531 63.8877V63.8369L270.472 63.584L281.204 106.125ZM304.482 72.79L297.226 72.9414L297.982 105.67L287.704 105.923L286.948 73.1943L279.44 73.3467L279.188 63.3818L304.23 62.8252L304.482 72.79ZM87.8748 80.6309C86.0107 80.6816 84.4992 81.8447 84.5496 84.7783L84.9021 100.965C84.9525 103.797 86.5145 104.911 88.3787 104.911C90.2429 104.911 91.7552 103.697 91.7048 100.813L91.3513 84.627C91.3009 81.7437 89.739 80.5803 87.8748 80.6309ZM334.966 84.7275C335.217 96.0582 329.272 99.6499 322.016 99.8018C314.761 99.9535 308.563 96.7161 308.311 85.335L307.657 56.0967L317.935 55.8447L318.59 85.2334C318.64 88.2683 319.9 89.28 321.714 89.2295C323.527 89.1789 324.787 88.1169 324.686 85.082L324.032 55.6924L334.31 55.4395L334.966 84.7275ZM366.759 83.9688C367.01 95.2995 361.065 98.8912 353.809 99.043C346.554 99.1947 340.356 95.9575 340.104 84.5762L339.451 55.3379L349.728 55.0859L350.384 84.4746C350.434 87.5094 351.693 88.5211 353.507 88.4707C355.32 88.4201 356.581 87.3582 356.48 84.3232L355.825 54.9336L366.103 54.6816L366.759 83.9688ZM384.242 51.4434C394.117 51.241 397.343 56.9064 397.494 62.4199C397.595 67.276 394.722 70.4634 392.052 72.082V72.335C395.024 73.0937 398.249 75.6733 398.4 81.7939L398.652 93.833L388.374 94.0859L388.122 82.2998C388.071 79.4672 387.114 78.051 384.545 78.1016H382.73L383.084 94.1865L372.804 94.4395V94.4902L371.847 51.7471L384.242 51.4434ZM262.511 89.584L267.197 89.4824L264.778 76.584H264.376L262.511 89.584ZM383.94 60.5996H382.277L382.479 68.8955H383.94C386.51 68.7942 387.467 66.973 387.417 64.3936C387.366 61.8139 386.258 60.5491 383.94 60.5996ZM12.5994 14.3662C19.1494 14.2145 25.4475 17.5527 25.3972 29.2373L16.2771 29.4395C16.277 25.545 15.3705 23.4711 13.0027 23.5215C10.8865 23.5215 10.0802 24.7358 10.1306 26.3545C10.1307 27.4673 10.6343 28.9848 12.8005 30.5527L18.5447 34.6504C24.6915 39.1016 25.9513 42.8445 26.0017 46.9922C26.1529 54.6809 20.3588 59.4871 13.3552 59.6895C6.3517 59.8918 0.153949 56.3505 0.254639 44.8682L9.37476 44.666C9.37483 48.7122 10.4831 50.3815 12.8005 50.3311C14.816 50.3311 15.5212 49.1167 15.5212 47.498C15.5212 46.537 15.32 45.0701 12.8513 43.2998L8.0144 39.9111L7.96362 39.9609C1.76665 35.5604 0.103526 31.5645 0.00268555 26.4053C-0.148471 19.1718 6.04926 14.518 12.5994 14.3662ZM40.5632 12.7979C50.5899 12.545 54.7215 17.7049 54.9734 26.6582C55.2252 35.6113 50.6903 41.4783 41.7722 41.6807H40.9158L41.2185 55.541L30.9392 55.7939L29.9822 13.0508L40.5632 12.7979ZM167.937 54.833L157.558 55.0859L149.043 33.2334H148.59L149.094 55.2881L139.52 55.4902L138.563 12.7471L149.395 12.4941L157.508 32.2217H157.911L157.458 12.292L166.98 12.0898L167.937 54.833ZM133.02 20.9414L121.785 21.1943L121.885 26.6074L132.617 26.3545L132.819 36.0156L122.087 36.2686L122.238 43.3506L133.726 43.0977L133.977 53.417L112.212 53.9229L111.254 11.1787L132.768 10.6738L133.02 20.9414ZM80.8718 19.9297L69.6355 20.1826L69.7361 25.5957L80.4685 25.3428L80.6697 35.0039L69.9382 35.2568L70.0886 42.3389L81.5769 42.0859L81.8289 52.4053L60.0623 52.9111L59.1052 10.167L80.6199 9.66211L80.8718 19.9297ZM97.2468 41.7314L107.777 41.4785L108.029 51.7979L87.3708 52.2529L86.4148 9.55859L96.491 9.30762L97.2468 41.7314ZM211.269 17.8057L199.529 40.7705L212.226 40.4668L212.478 50.7354L188.344 51.292L188.092 40.9229L199.932 18.4629L187.94 18.7158L187.688 8.54883L211.067 7.99219L211.269 17.8057ZM227.626 50.4131L217.35 50.6494L216.606 17.9805L226.882 17.7451L227.626 50.4131ZM256.112 16.9453L248.856 17.0977L249.612 49.8252L239.334 50.0781L238.578 17.3506L231.07 17.502L230.818 7.53711L255.86 6.98047L256.112 16.9453ZM287.465 43.6289L277.189 43.8652L276.445 11.1963L286.72 10.9609L287.465 43.6289ZM322.268 42.7432L311.888 42.9961L303.374 21.1445H302.92L303.424 43.1982L293.85 43.4014L292.893 0.658203L303.726 0.405273L311.839 20.1328H312.241L311.788 0.202148L321.31 0L322.268 42.7432ZM41.6208 22.5098H40.5125L40.7146 32.2217H41.823C44.1406 32.1204 45.1484 30.7548 45.0476 27.2646C44.9468 23.7745 43.8378 22.4592 41.6208 22.5098ZM226.772 15.1289L216.496 15.3643L216.325 7.87988L226.601 7.64453L226.772 15.1289ZM86.4148 9.55859L86.363 9.56055L86.4138 9.50977L86.4148 9.55859ZM286.712 8.34277L276.436 8.57812L276.265 1.09375L286.541 0.858398L286.712 8.34277Z" fill="white"/>
</svg>
