<svg width="424" height="34" viewBox="0 0 424 34" fill="none" xmlns="http://www.w3.org/2000/svg">
<path d="M146.961 0H139.903V4.21214H146.961V0Z" fill="#FAB432"/>
<path d="M183.137 1.89453H176.079V6.10667H183.137V1.89453Z" fill="#FAB432"/>
<path d="M5.38971 18.437C1.19896 15.3489 0.140407 12.5695 0.140407 9.04105C0.140407 4.10049 4.46348 1.01172 8.96298 1.01172C13.3302 1.01172 17.7415 3.39412 17.5209 11.3787H11.2565C11.3447 8.73164 10.7272 7.27614 9.0953 7.27614C7.6398 7.27614 7.06575 8.07005 7.06575 9.1727C7.06575 9.92251 7.37449 10.9817 8.83066 12.0844L12.7127 14.9954C16.8593 18.1276 17.6532 20.7299 17.6532 23.5533C17.6532 28.8026 13.5948 32.0231 8.78656 32.0231C4.11063 32.0237 -0.212442 29.5531 0.00808879 21.7009H6.27251C6.18429 24.4796 6.9341 25.627 8.52192 25.627C9.88921 25.627 10.4185 24.8331 10.4185 23.7298C10.4185 23.0682 10.3303 22.0537 8.65424 20.8187L5.38971 18.437Z" fill="#FAB432"/>
<path d="M20.0369 29.2471V0H27.3157C34.1976 0 36.9763 3.57327 36.9763 9.70537C36.9763 15.8375 33.8007 19.7629 27.6686 19.7629H27.0952V29.2471H20.0369ZM27.0952 13.278H27.8457C29.4335 13.278 30.1392 12.3517 30.1392 9.97001C30.1392 7.58827 29.3894 6.66137 27.8457 6.66137H27.0952V13.278Z" fill="#FAB432"/>
<path d="M39.1838 0H53.9614V7.01422H46.2415V10.7198H53.6086V17.3364H46.2415V22.1888H54.1378V29.2471H39.1838V0Z" fill="#FAB432"/>
<path d="M57.0073 0H63.9774V22.1888H71.2122V29.2471H57.008L57.0073 0Z" fill="#FAB432"/>
<path d="M73.1982 1.89453H87.9758V8.90875H80.2559V12.6143H87.623V19.2309H80.2559V24.0833H88.1523V31.1416H73.1982V1.89453Z" fill="#FAB432"/>
<path d="M97.8586 16.0546H97.594V31.1409H91.0215V1.89453H98.4768L103.726 15.5254H103.991V1.89453H110.52V31.1416H103.374L97.86 16.0553L97.8586 16.0546Z" fill="#FAB432"/>
<path d="M121.109 0H137.166V6.70548L128.74 22.2329H137.474V29.2464H120.888V22.144L129.358 6.96945H121.109V0Z" fill="#FAB432"/>
<path d="M148.947 0H166.151V6.83713H161.166V29.2464H154.108V6.8378H148.947V0Z" fill="#FAB432"/>
<path d="M193.504 16.0546H193.239V31.1409H186.667V1.89453H194.122L199.371 15.5254H199.636V1.89453H206.164V31.1416H199.018L193.505 16.0553L193.504 16.0546Z" fill="#FAB432"/>
<path d="M146.961 5.31543H139.903V29.2471H146.961V5.31543Z" fill="#FAB432"/>
<path d="M183.137 7.20923H176.079V31.1408H183.137V7.20923Z" fill="#FAB432"/>
<path d="M214.517 12.1866C214.517 5.26122 219.06 2.34888 223.913 2.34888C228.765 2.34888 233.309 5.26055 233.309 12.1418V23.5225C233.309 30.5809 228.765 33.3602 223.913 33.3602C219.06 33.3602 214.517 30.7132 214.517 23.5673V12.1866ZM226.251 12.363C226.251 10.3782 225.192 9.5843 223.913 9.5843C222.633 9.5843 221.574 10.3782 221.574 12.363V23.435C221.574 25.3757 222.633 26.1702 223.913 26.1702C225.192 26.1702 226.251 25.3763 226.251 23.435V12.363Z" fill="#FAB432"/>
<path d="M243.103 15.4979H242.839V30.5842H236.266V1.33716H243.722L248.971 14.968H249.236V1.33716H255.764V30.5842H248.618L243.104 15.4979H243.103Z" fill="#FAB432"/>
<path d="M258.413 1.3371H274.47V8.04257L266.044 23.57H274.778V30.5835H258.192V23.4811L266.662 8.30654H258.413V1.33643V1.3371Z" fill="#FAB432"/>
<path d="M277.206 1.33716H291.984V8.35138H284.264V12.057H291.631V18.6736H284.264V23.5259H292.16V30.5842H277.206V1.33716Z" fill="#FAB432"/>
<path d="M309.808 17.3917H309.543V32.478H302.971V3.23096H310.426L315.675 16.8618H315.94V3.23096H322.468V32.478H315.322L309.808 17.3917Z" fill="#FAB432"/>
<path d="M330.852 3.23169H339.057L345.762 32.4788H338.528L337.513 27.053H331.999L330.984 32.4788H323.97L330.852 3.23169ZM334.69 12.0543L333.19 20.9209H336.411L334.955 12.0543H334.69Z" fill="#FAB432"/>
<path d="M344.177 1.33716H361.381V8.17429H356.396V30.5836H349.338V8.17429H344.177V1.33716Z" fill="#FAB432"/>
<path d="M362.927 1.33716H369.985V21.4529C369.985 23.5266 370.823 24.2316 372.059 24.2316C373.294 24.2316 374.176 23.5259 374.176 21.4529V1.33716H381.234V21.3647C381.234 29.1281 377.087 31.4664 372.103 31.4664C367.118 31.4664 362.927 29.1281 362.927 21.3647V1.33716H362.927Z" fill="#FAB432"/>
<path d="M383.882 3.23169H390.941V23.3475C390.941 25.4211 391.779 26.1261 393.014 26.1261C394.249 26.1261 395.131 25.4204 395.131 23.3475V3.23169H402.189V23.2592C402.189 31.0226 398.042 33.3609 393.058 33.3609C388.073 33.3609 383.883 31.0226 383.883 23.2592V3.23169H383.882Z" fill="#FAB432"/>
<path d="M405.278 30.5842V1.33716H413.792C420.585 1.33716 422.702 5.26328 422.702 9.05708C422.702 12.3657 420.673 14.5276 418.82 15.5861V15.7626C420.85 16.3359 423.011 18.145 423.011 22.3357V30.5849H415.953V22.5121C415.953 20.5715 415.335 19.6011 413.571 19.6011H412.335V30.5856H405.277L405.278 30.5842ZM412.337 13.2485H413.352C415.116 13.2485 415.822 12.0129 415.822 10.2486C415.822 8.48436 415.072 7.60224 413.484 7.60224H412.337V13.2485Z" fill="#FAB432"/>
</svg>
